HIERARCHY
ROOT	mixamorig:Hips
{
	OFFSET	0.000	0.000	0.000
	CHANNELS	6	Xposition	Yposition	Zposition	Yrotation	Xrotation	Zrotation
	JOINT	mixamorig:LeftUpLeg
	{
		OFFSET	8.100	0.000	-0.000
		CHANNELS	3	Yrotation	Xrotation	Zrotation
		JOINT	mixamorig:LeftLeg
		{
			OFFSET	-0.000	43.200	0.000
			CHANNELS	3	Yrotation	Xrotation	Zrotation
			JOINT	mixamorig:LeftFoot
			{
				OFFSET	-0.063	43.300	-0.000
				CHANNELS	3	Yrotation	Xrotation	Zrotation
				End Site
				{
					OFFSET	0.000	14.572	-0.000
				}
			}
		}
	}
	JOINT	mixamorig:RightUpLeg
	{
		OFFSET	-8.100	0.000	-0.000
		CHANNELS	3	Yrotation	Xrotation	Zrotation
		JOINT	mixamorig:RightLeg
		{
			OFFSET	-0.000	43.200	0.000
			CHANNELS	3	Yrotation	Xrotation	Zrotation
			JOINT	mixamorig:RightFoot
			{
				OFFSET	0.063	43.300	-0.000
				CHANNELS	3	Yrotation	Xrotation	Zrotation
				End Site
				{
					OFFSET	-0.000	14.572	0.000
				}
			}
		}
	}
	JOINT	mixamorig:Spine
	{
		OFFSET	0.000	8.484	-0.000
		CHANNELS	3	Yrotation	Xrotation	Zrotation
		JOINT	mixamorig:Spine1
		{
			OFFSET	0.000	15.101	0.000
			CHANNELS	3	Yrotation	Xrotation	Zrotation
			JOINT	mixamorig:Spine2
			{
				OFFSET	0.000	12.749	0.000
				CHANNELS	3	Yrotation	Xrotation	Zrotation
				JOINT	mixamorig:LeftShoulder
				{
					OFFSET	7.000	12.367	0.000
					CHANNELS	3	Yrotation	Xrotation	Zrotation
					JOINT	mixamorig:LeftArm
					{
						OFFSET	0.000	13.606	0.212
						CHANNELS	3	Yrotation	Xrotation	Zrotation
						JOINT	mixamorig:LeftForeArm
						{
							OFFSET	-0.000	27.102	0.000
							CHANNELS	3	Yrotation	Xrotation	Zrotation
							JOINT	mixamorig:LeftHand
							{
								OFFSET	0.000	28.300	0.000
								CHANNELS	3	Yrotation	Xrotation	Zrotation
								JOINT	mixamorig:LeftHandIndex1
								{
									OFFSET	-2.544	7.977	0.103
									CHANNELS	3	Yrotation	Xrotation	Zrotation
									JOINT	mixamorig:LeftHandIndex2
									{
										OFFSET	-0.000	4.500	0.000
										CHANNELS	3	Yrotation	Xrotation	Zrotation
										End Site
										{
											OFFSET	0.000	2.768	0.000
										}
									}
								}
								JOINT	mixamorig:LeftHandMiddle1
								{
									OFFSET	-0.545	8.132	0.103
									CHANNELS	3	Yrotation	Xrotation	Zrotation
									JOINT	mixamorig:LeftHandMiddle2
									{
										OFFSET	0.000	4.700	-0.000
										CHANNELS	3	Yrotation	Xrotation	Zrotation
										End Site
										{
											OFFSET	0.000	3.100	-0.000
										}
									}
								}
								JOINT	mixamorig:LeftHandPinky1
								{
									OFFSET	3.111	6.948	0.103
									CHANNELS	3	Yrotation	Xrotation	Zrotation
									JOINT	mixamorig:LeftHandPinky2
									{
										OFFSET	0.000	3.500	0.000
										CHANNELS	3	Yrotation	Xrotation	Zrotation
										End Site
										{
											OFFSET	-0.000	2.200	-0.000
										}
									}
								}
								JOINT	mixamorig:LeftHandRing1
								{
									OFFSET	1.421	7.699	0.103
									CHANNELS	3	Yrotation	Xrotation	Zrotation
									JOINT	mixamorig:LeftHandRing2
									{
										OFFSET	0.000	4.300	-0.000
										CHANNELS	3	Yrotation	Xrotation	Zrotation
										End Site
										{
											OFFSET	0.000	2.773	0.000
										}
									}
								}
								JOINT	mixamorig:LeftHandThumb1
								{
									OFFSET	-2.785	2.078	0.103
									CHANNELS	3	Yrotation	Xrotation	Zrotation
									JOINT	mixamorig:LeftHandThumb2
									{
										OFFSET	-0.000	3.989	0.000
										CHANNELS	3	Yrotation	Xrotation	Zrotation
										End Site
										{
											OFFSET	-0.000	3.028	0.000
										}
									}
								}
							}
						}
					}
				}
				JOINT	mixamorig:Neck
				{
					OFFSET	-0.000	20.150	0.000
					CHANNELS	3	Yrotation	Xrotation	Zrotation
					JOINT	mixamorig:Head
					{
						OFFSET	-0.000	11.101	0.000
						CHANNELS	3	Yrotation	Xrotation	Zrotation
						End Site
						{
							OFFSET	3.719	6.163	8.747
						}
						End Site
						{
							OFFSET	-3.700	6.163	8.747
						}
					}
				}
				JOINT	mixamorig:RightShoulder
				{
					OFFSET	-7.000	12.367	0.000
					CHANNELS	3	Yrotation	Xrotation	Zrotation
					JOINT	mixamorig:RightArm
					{
						OFFSET	-0.000	13.608	-0.000
						CHANNELS	3	Yrotation	Xrotation	Zrotation
						JOINT	mixamorig:RightForeArm
						{
							OFFSET	0.000	27.102	0.000
							CHANNELS	3	Yrotation	Xrotation	Zrotation
							JOINT	mixamorig:RightHand
							{
								OFFSET	-0.000	28.300	0.000
								CHANNELS	3	Yrotation	Xrotation	Zrotation
								JOINT	mixamorig:RightHandIndex1
								{
									OFFSET	2.543	7.977	0.103
									CHANNELS	3	Yrotation	Xrotation	Zrotation
									JOINT	mixamorig:RightHandIndex2
									{
										OFFSET	-0.000	4.500	0.000
										CHANNELS	3	Yrotation	Xrotation	Zrotation
										End Site
										{
											OFFSET	0.000	2.768	0.000
										}
									}
								}
								JOINT	mixamorig:RightHandMiddle1
								{
									OFFSET	0.545	8.132	0.103
									CHANNELS	3	Yrotation	Xrotation	Zrotation
									JOINT	mixamorig:RightHandMiddle2
									{
										OFFSET	0.000	4.700	0.000
										CHANNELS	3	Yrotation	Xrotation	Zrotation
										End Site
										{
											OFFSET	0.000	3.100	0.000
										}
									}
								}
								JOINT	mixamorig:RightHandPinky1
								{
									OFFSET	-3.111	6.948	0.103
									CHANNELS	3	Yrotation	Xrotation	Zrotation
									JOINT	mixamorig:RightHandPinky2
									{
										OFFSET	-0.000	3.500	0.000
										CHANNELS	3	Yrotation	Xrotation	Zrotation
										End Site
										{
											OFFSET	-0.000	2.200	-0.000
										}
									}
								}
								JOINT	mixamorig:RightHandRing1
								{
									OFFSET	-1.421	7.699	0.103
									CHANNELS	3	Yrotation	Xrotation	Zrotation
									JOINT	mixamorig:RightHandRing2
									{
										OFFSET	0.000	4.300	0.000
										CHANNELS	3	Yrotation	Xrotation	Zrotation
										End Site
										{
											OFFSET	0.000	2.773	0.000
										}
									}
								}
								JOINT	mixamorig:RightHandThumb1
								{
									OFFSET	2.785	2.078	0.103
									CHANNELS	3	Yrotation	Xrotation	Zrotation
									JOINT	mixamorig:RightHandThumb2
									{
										OFFSET	-0.000	3.989	0.000
										CHANNELS	3	Yrotation	Xrotation	Zrotation
										End Site
										{
											OFFSET	0.000	3.028	-0.000
										}
									}
								}
							}
						}
					}
				}
			}
		}
	}
}
MOTION
Frames:	4
Frame Time:	0.040
-0.000	90.814	0.000	-0.000	-0.000	-0.000	0.000	-0.000	-180.000	-0.000	-0.000	0.000	0.000	65.000	0.000	-0.000	0.000	-180.000	-0.000	-0.000	-0.000	0.000	65.000	0.000	-0.000	-0.000	0.000	0.000	-0.000	-0.000	0.000	-0.000	0.000	-270.000	89.108	0.000	-0.000	0.892	-0.000	0.000	-0.000	0.000	-0.000	-0.000	-0.000	0.000	0.000	-0.000	-0.000	0.000	0.000	0.000	0.000	0.000	-0.000	0.000	0.000	-0.000	0.000	0.000	-0.000	0.000	-0.000	0.000	-0.000	0.000	-0.000	-0.000	0.000	-307.812	357.285	-318.663	-0.001	-0.000	-0.001	-0.000	-0.000	-0.000	-0.000	-0.000	-0.000	-90.000	90.000	-0.000	-0.000	-0.000	0.000	-0.000	-0.000	0.000	0.000	-0.000	-0.000	-0.000	-0.000	-0.000	0.000	0.000	0.000	-0.000	-0.000	-0.000	0.000	0.000	-0.000	-0.000	-0.000	0.000	0.000	0.000	-0.000	-0.000	-0.000	0.000	0.000	0.000	-0.000	-52.189	357.285	-41.337	0.000	0.001	0.001	
-0.000	90.814	0.000	-0.000	-0.000	-0.000	0.000	-0.000	-180.000	-0.000	-0.000	0.000	0.000	65.000	0.000	-0.000	0.000	-180.000	-0.000	-0.000	-0.000	0.000	65.000	0.000	-0.000	-0.000	0.000	0.000	-0.000	-0.000	0.000	-0.000	0.000	-270.000	89.108	0.000	-0.000	0.892	-0.000	0.000	-0.000	0.000	-0.000	-0.000	-0.000	0.000	0.000	-0.000	-0.000	0.000	0.000	0.000	0.000	0.000	-0.000	0.000	0.000	-0.000	0.000	0.000	-0.000	0.000	-0.000	0.000	-0.000	0.000	-0.000	-0.000	0.000	-307.812	357.285	-318.663	-0.001	-0.000	-0.001	-0.000	-0.000	-0.000	-0.000	-0.000	-0.000	-90.000	90.000	-0.000	-0.000	-0.000	0.000	-0.000	-0.000	0.000	0.000	-0.000	-0.000	-0.000	-0.000	-0.000	0.000	0.000	0.000	-0.000	-0.000	-0.000	0.000	0.000	-0.000	-0.000	-0.000	0.000	0.000	0.000	-0.000	-0.000	-0.000	0.000	0.000	0.000	-0.000	-52.189	357.285	-41.337	0.000	0.001	0.001	
-12.646	89.737	6.013	-0.990	0.308	-2.315	-350.834	353.142	-177.275	-0.004	339.137	0.001	-8.418	78.667	-5.323	-1.319	358.844	-173.672	-0.075	349.501	-359.993	-359.037	75.024	-6.882	-359.765	358.395	-359.057	-359.556	356.781	-358.116	0.000	-0.000	0.000	-197.880	80.016	-290.677	-52.860	79.423	-51.479	-343.471	35.275	-306.765	-8.417	6.558	-346.496	-352.348	29.794	-341.778	0.000	28.826	-0.000	-356.932	27.238	-347.387	-0.000	27.588	-0.000	-27.766	40.088	-40.720	-0.001	40.851	-0.001	-6.964	35.384	-3.986	-0.000	32.696	-0.000	-293.823	354.627	-326.932	-349.462	31.731	-19.017	-358.853	8.669	-0.546	-358.853	8.669	-0.546	-178.113	80.148	-87.824	-298.227	71.308	-294.674	-9.974	1.007	-24.520	-351.650	355.457	-347.001	-6.390	28.598	-14.707	-0.000	29.284	-0.000	-2.576	33.408	-8.570	-0.000	33.823	-0.000	-341.469	36.712	-339.090	-0.000	33.722	-0.000	-351.492	37.259	-352.039	-0.000	35.213	-0.000	-83.220	335.127	-30.068	-357.768	11.679	-353.733	
-12.655	89.675	6.029	-0.967	0.320	-2.302	-350.834	352.921	-177.278	-0.004	338.696	0.001	-8.536	78.895	-5.488	-1.385	358.411	-173.674	-0.082	348.622	-359.992	-359.038	75.481	-6.894	-359.756	358.390	-359.070	-359.538	356.771	-358.144	0.000	-0.000	0.000	-197.796	79.993	-290.574	-53.097	79.335	-51.718	-343.447	35.384	-306.621	-8.234	7.076	-346.073	-352.315	29.163	-341.047	0.000	28.135	-0.000	-357.054	26.618	-347.595	-0.000	26.859	-0.000	-27.908	40.092	-41.050	-0.001	40.721	-0.001	-6.932	34.754	-4.171	0.000	32.064	-0.000	-293.954	354.239	-326.550	-348.618	30.519	-17.606	-358.873	8.694	-0.531	-358.873	8.694	-0.531	-178.062	80.135	-87.768	-298.227	71.283	-294.670	-9.950	1.018	-24.511	-351.668	355.416	-346.986	-6.417	28.629	-14.780	-0.000	29.321	-0.000	-2.578	33.413	-8.575	-0.000	33.830	-0.000	-341.468	36.716	-339.092	-0.000	33.727	-0.000	-351.493	37.267	-352.046	-0.000	35.221	-0.000	-83.212	335.112	-30.087	-357.777	11.629	-353.781	
